
<svg xmlns="http://www.w3.org/2000/svg" viewBox="0 0 1440 320"><path fill="#967bb6" fill-opacity="1" d="M0,32L20,37.3C40,43,80,53,120,90.7C160,128,200,192,240,213.3C280,235,320,213,360,192C400,171,440,149,480,160C520,171,560,213,600,229.3C640,245,680,235,720,213.3C760,192,800,160,840,133.3C880,107,920,85,960,96C1000,107,1040,149,1080,154.7C1120,160,1160,128,1200,106.7C1240,85,1280,75,1320,80C1360,85,1400,107,1420,117.3L1440,128L1440,320L1420,320C1400,320,1360,320,1320,320C1280,320,1240,320,1200,320C1160,320,1120,320,1080,320C1040,320,1000,320,960,320C920,320,880,320,840,320C800,320,760,320,720,320C680,320,640,320,600,320C560,320,520,320,480,320C440,320,400,320,360,320C320,320,280,320,240,320C200,320,160,320,120,320C80,320,40,320,20,320L0,320Z"></path></svg>